<?xml version="1.0" encoding="utf-8"?>
<!-- Generator: Adobe Illustrator 27.8.1, SVG Export Plug-In . SVG Version: 6.00 Build 0)  -->
<svg version="1.1" id="Laag_1" xmlns="http://www.w3.org/2000/svg" xmlns:xlink="http://www.w3.org/1999/xlink" x="0px" y="0px"
	 viewBox="0 0 595.28 595.28" style="enable-background:new 0 0 595.28 595.28;" xml:space="preserve">
<style type="text/css">
	.st0{fill:#FFFFFF;}
</style>
<g>
	<path class="st0" d="M296.16,315.88c31.6-32.05,59.42-60.42,87.41-88.62c31.25-31.48,62.57-62.89,94.02-94.18
		c25.72-25.59,57.97-25.74,83.86-0.64c5.36,5.19,10.66,10.45,15.86,15.8c23.56,24.24,23.98,56.85,0.27,81.03
		c-32.51,33.16-65.54,65.82-98.35,98.69c-44.53,44.61-90.06,88.27-133.21,134.17c-24.6,26.17-70.6,25.52-95.44,0.14
		C175.19,385.22,97.97,309.95,21.5,233.96C-7.06,205.58-7,174.64,21.53,145.92c4.38-4.41,8.74-8.85,13.18-13.2
		c24.18-23.69,57-24.31,81.11-0.57c57.29,56.44,114.22,113.25,171.17,170.04C290.17,305.37,292.13,309.77,296.16,315.88z"/>
</g>
</svg>
