<?xml version="1.0" encoding="utf-8"?>
<!-- Generator: Adobe Illustrator 27.8.1, SVG Export Plug-In . SVG Version: 6.00 Build 0)  -->
<svg version="1.1" id="Laag_1" xmlns="http://www.w3.org/2000/svg" xmlns:xlink="http://www.w3.org/1999/xlink" x="0px" y="0px"
	 viewBox="0 0 595.28 595.28" style="enable-background:new 0 0 595.28 595.28;" xml:space="preserve">
<style type="text/css">
	.st0{fill:#FFFFFF;}
	.st1{fill:#706F6F;}
</style>
<g>
	<g>
		<path class="st0" d="M129.03,206.26c0-53.21,0-106.42,0-159.66c112.3,0,224.6,0,337,0c0,167.31,0,334.66,0,502
			c-57.12,0-114.28,0-171.44,0c1.83-1.37,3.98-2.47,5.44-4.16c38.13-44.11,72.47-90.97,101.65-141.51
			c20.39-35.32,38.03-71.91,49.95-111.06c12.28-40.35,17.26-81.34,8.27-122.99c-10.71-49.64-39.16-86-86-105.82
			c-51.08-21.62-103.13-21.3-153.83,1.42c-50.64,22.69-78.59,63.55-88.04,117.64C130.64,190.1,130.01,198.21,129.03,206.26z"/>
		<path class="st1" d="M129.03,206.26c0.98-8.05,1.61-16.16,3-24.14c9.45-54.09,37.4-94.95,88.04-117.64
			c50.7-22.72,102.75-23.03,153.83-1.42c46.84,19.82,75.29,56.18,86,105.82c8.99,41.65,4.01,82.64-8.27,122.99
			c-11.91,39.15-29.56,75.75-49.95,111.06c-29.17,50.54-63.51,97.4-101.65,141.51c-1.46,1.69-3.61,2.79-5.44,4.16
			c-1.66,0-3.32,0-4.99,0c-5.04-4.7-10.65-8.91-15.02-14.17c-46.73-56.17-84.65-117.81-113.39-184.99
			c-14.01-32.75-24.89-66.53-29.66-102.02c-0.9-6.72-1.67-13.47-2.5-20.2C129.03,220.23,129.03,213.25,129.03,206.26z
			 M291.55,516.99c2.13-2.29,3.05-3.21,3.89-4.2c35.61-41.74,66.82-86.55,93.13-134.7c19.4-35.52,35.88-72.28,45.34-111.86
			c7.8-32.65,9.69-65.37,0.54-98.11c-11.29-40.41-36.79-68.31-75.53-83.64C319.79,69,279.92,69.43,240.41,82.82
			c-28.65,9.7-51.19,27.74-66.56,54.2c-14.46,24.88-19.66,52-19.17,80.4c0.67,39.14,11.45,76.04,25.75,112.05
			c16.61,41.85,37.9,81.31,62.68,118.8C258.4,471.39,275.01,493.63,291.55,516.99z"/>
		<path class="st0" d="M129.03,227.22c0.83,6.73,1.6,13.48,2.5,20.2c4.78,35.49,15.65,69.26,29.66,102.02
			c28.75,67.19,66.67,128.83,113.39,184.99c4.37,5.25,9.98,9.47,15.02,14.17c-53.47,0-106.94,0-160.57,0
			C129.03,441.47,129.03,334.35,129.03,227.22z"/>
		<path class="st0" d="M291.55,516.99c-16.53-23.36-33.15-45.6-48.43-68.73c-24.78-37.49-46.07-76.96-62.68-118.8
			c-14.3-36.01-25.07-72.91-25.75-112.05c-0.49-28.4,4.71-55.52,19.17-80.4c15.37-26.45,37.91-44.49,66.56-54.2
			c39.51-13.38,79.38-13.81,118.51,1.66c38.74,15.32,64.24,43.22,75.53,83.64c9.15,32.74,7.26,65.46-0.54,98.11
			c-9.45,39.58-25.93,76.35-45.34,111.86c-26.31,48.16-57.52,92.96-93.13,134.7C294.59,513.78,293.67,514.7,291.55,516.99z
			 M297.68,282.62c37.4-0.14,67.76-30.59,67.78-67.98c0.02-37.51-30.93-68.4-68.22-68.1c-37.32,0.3-67.66,30.98-67.53,68.29
			C229.84,252.2,260.48,282.76,297.68,282.62z"/>
		<path class="st1" d="M297.68,282.62c-37.2,0.14-67.84-30.41-67.97-67.79c-0.13-37.31,30.21-67.99,67.53-68.29
			c37.3-0.3,68.24,30.59,68.22,68.1C365.44,252.03,335.08,282.48,297.68,282.62z M297.51,172.1c-23.66,0.06-42.27,18.57-42.58,42.35
			c-0.3,23.44,19.08,42.84,42.73,42.79c23.51-0.06,42.34-18.82,42.59-42.44C340.5,191.22,321.3,172.04,297.51,172.1z"/>
		<path class="st1" d="M297.51,172.1c23.79-0.06,43,19.13,42.75,42.69c-0.25,23.62-19.08,42.38-42.59,42.44
			c-23.66,0.06-43.04-19.34-42.73-42.79C255.23,190.66,273.85,172.15,297.51,172.1z"/>
	</g>
</g>
</svg>
