<?xml version="1.0" encoding="utf-8"?>
<!-- Generator: Adobe Illustrator 27.8.1, SVG Export Plug-In . SVG Version: 6.00 Build 0)  -->
<svg version="1.1" id="Laag_1" xmlns="http://www.w3.org/2000/svg" xmlns:xlink="http://www.w3.org/1999/xlink" x="0px" y="0px"
	 viewBox="0 0 595.28 595.28" style="enable-background:new 0 0 595.28 595.28;" xml:space="preserve">
<style type="text/css">
	.st0{fill:#FFFFFF;}
</style>
<g>
	<path class="st0" d="M280.6,411.19c0-1.88,0-3.76,0-5.64c0-87.61,0-175.22,0.01-262.83c0-9.36,4.26-15.6,12.2-17.99
		c10.6-3.19,21.46,4.53,21.71,15.6c0.17,7.47,0.05,14.95,0.05,22.41c0,81.09,0,162.18,0,243.27c0,1.74,0,3.47,0,6.35
		c1.98-1.73,3.29-2.74,4.45-3.9c28.91-28.9,57.82-57.79,86.66-86.74c3.81-3.82,8.02-6.41,13.58-6.32c6.87,0.11,12.08,3.12,15.1,9.25
		c3.06,6.21,2.54,12.37-1.61,18.03c-1.04,1.41-2.33,2.65-3.57,3.9c-39.06,39.1-78.13,78.18-117.2,117.26
		c-9.92,9.93-18.88,9.91-28.8-0.02c-39.26-39.28-78.5-78.58-117.8-117.83c-3.81-3.8-6.45-7.97-6.4-13.55
		c0.08-7.06,3.18-12.36,9.49-15.35c6.4-3.02,12.67-2.3,18.32,2.16c1.38,1.09,2.58,2.4,3.83,3.65
		c28.52,28.52,57.02,57.05,85.54,85.56c1.11,1.11,2.28,2.16,3.42,3.24C279.93,411.52,280.27,411.35,280.6,411.19z"/>
</g>
</svg>
