<?xml version="1.0" encoding="utf-8"?>
<!-- Generator: Adobe Illustrator 27.8.1, SVG Export Plug-In . SVG Version: 6.00 Build 0)  -->
<svg version="1.1" id="Laag_1" xmlns="http://www.w3.org/2000/svg" xmlns:xlink="http://www.w3.org/1999/xlink" x="0px" y="0px"
	 viewBox="0 0 595.28 595.28" style="enable-background:new 0 0 595.28 595.28;" xml:space="preserve">
<style type="text/css">
	.st0{fill:#5D5D5D;}
	.st1{fill:#FFFFFF;}
</style>
<g id="aREMgz.tif">
	<g>
		<path class="st0" d="M310.88,524.41c-8.82,0-17.65,0-26.47,0c-1.27-0.27-2.53-0.69-3.81-0.78c-19.62-1.3-38.7-5.33-57.21-11.84
			C119.63,475.27,56.76,370.76,74.87,262.13C87.78,184.7,130.8,127.95,201.6,94.37c62.79-29.79,127.63-30.59,190.46-0.49
			c81.38,38.99,125.01,105.22,131.1,195.29c2.52,37.31-5.08,73.28-21.72,106.81c-34.26,69-89.58,110.66-165.31,125.01
			C327.79,522.56,319.29,523.28,310.88,524.41z M134.16,165.18c-29.34,36.3-45.45,78.29-47.56,125.88c30.38,0,60.13,0,90.23,0
			c0.57-35.44,5.52-70.02,14.94-102.96C172.33,180.35,153.57,172.89,134.16,165.18z M402.96,188.09
			c9.49,33.26,14.46,67.73,14.9,102.88c30.36,0,60.22,0,90.33,0c-2.31-47.82-18.36-89.89-47.64-125.77
			C441.02,172.96,422.24,180.43,402.96,188.09z M403.72,409.82c18.63,7.4,37.5,14.91,56.86,22.6c29.34-36.2,45.41-78.2,47.59-125.66
			c-30.34,0-60.22,0-89.49,0c-1.63,17.64-2.52,34.98-5.01,52.08C411.16,376.08,407.06,393.08,403.72,409.82z M191.79,409.48
			c-9.57-33.18-14.33-67.79-14.98-102.71c-30.48,0-60.24,0-90.24,0c2.28,47.69,18.38,89.64,47.63,125.66
			C153.51,424.73,172.28,417.25,191.79,409.48z M305.1,201.99c0,29.04,0,58.93,0,89.02c32.61,0,64.97,0,97.55,0
			c-0.43-34.23-5.33-67.43-14.47-98.98C360.34,195.37,333,198.65,305.1,201.99z M192.13,291.02c32.63,0,64.99,0,97.42,0
			c0-30.23,0-60.13,0-89.06c-27.79-3.31-55.23-6.58-82.99-9.89C197.45,223.74,192.46,256.93,192.13,291.02z M305.03,395.62
			c28.05,3.35,55.5,6.63,83.19,9.95c9.09-31.87,14.12-65.04,14.39-98.84c-32.87,0-65.13,0-97.58,0
			C305.03,336.83,305.03,366.62,305.03,395.62z M289.47,397.11c0-30.61,0-60.52,0-90.46c-32.58,0-64.86,0-97.36,0
			c0.4,34.17,5.33,67.38,14.86,100.28C234.24,400.84,261.56,397.49,289.47,397.11z M383.04,176.18
			c-7.56-20.84-16.96-40.26-30.73-57.34c-9.34-11.58-20.22-21.31-34.28-26.84c-4.09-1.61-8.43-2.55-12.8-3.83
			c0,33.02,0,65.08,0,97.31C331.61,184.88,357.32,182.11,383.04,176.18z M305.08,509.07c11.69-1.55,21.54-6.54,30.37-13.59
			c24.13-19.27,36.84-45.92,47.65-73.84c-16.16-5.07-67.14-10.83-78.02-8.82C305.08,444.77,305.08,476.75,305.08,509.07z
			 M211.65,176.17c25.98,5.92,51.76,8.82,77.75,9.24c0-32.6,0-64.66,0-96.94c-13.91,2.26-25.2,8.82-35.16,17.85
			c-16.91,15.33-27.77,34.74-36.84,55.3C215.36,166.27,213.66,171.08,211.65,176.17z M211.58,421.41
			c2.25,5.61,4.19,10.98,6.52,16.17c9.03,20.09,19.79,39.04,36.45,53.96c9.99,8.95,21.22,15.52,34.92,17.53c0-32.37,0-64.46,0-96.83
			C263.11,412.5,237.42,415.69,211.58,421.41z M243.68,95.14c-38.16,9.97-70.82,29.08-99.4,58.44c17.9,6.89,34.79,13.38,52.11,20.05
			C206.31,142.98,221.96,117.25,243.68,95.14z M349.86,94.41c22.9,22.77,38.66,48.52,48.54,79.17
			c17.47-6.74,34.35-13.25,52.04-20.07C421.95,124.11,389.22,105,349.86,94.41z M351.66,502.12c38-9.87,70.4-28.92,98-57.25
			c-16.74-8.65-33.66-15.25-51.68-19.82C388.49,454.61,372.91,480.02,351.66,502.12z M196.71,425.07
			c-18.07,4.68-34.91,11.18-51.11,19.57c15.09,21.48,78.48,58.52,98.07,57.29C221.79,480.21,206.34,454.74,196.71,425.07z"/>
		<path class="st1" d="M310.88,524.41c8.42-1.12,16.91-1.85,25.24-3.43c75.73-14.35,131.06-56,165.31-125.01
			c16.64-33.53,24.25-69.5,21.72-106.81c-6.09-90.07-49.72-156.3-131.1-195.29c-62.83-30.1-127.67-29.29-190.46,0.49
			C130.8,127.95,87.78,184.7,74.87,262.13c-18.11,108.63,44.76,213.14,148.52,249.65c18.5,6.51,37.59,10.54,57.21,11.84
			c1.28,0.08,2.54,0.51,3.81,0.78c-71.18,0-142.35,0-213.53,0c0-151.18,0-302.35,0-453.53c151.18,0,302.35,0,453.53,0
			c0,151.18,0,302.35,0,453.53C453.23,524.41,382.05,524.41,310.88,524.41z"/>
		<path class="st1" d="M134.16,165.18c19.41,7.72,38.17,15.18,57.61,22.91c-9.42,32.95-14.37,67.52-14.94,102.96
			c-30.1,0-59.84,0-90.23,0C88.71,243.46,104.82,201.48,134.16,165.18z"/>
		<path class="st1" d="M402.96,188.09c19.28-7.66,38.05-15.12,57.6-22.89c29.28,35.89,45.33,77.95,47.64,125.77
			c-30.11,0-59.98,0-90.33,0C417.42,255.81,412.46,221.35,402.96,188.09z"/>
		<path class="st1" d="M403.72,409.82c3.33-16.73,7.44-33.74,9.95-50.98c2.49-17.1,3.38-34.44,5.01-52.08c29.27,0,59.15,0,89.49,0
			c-2.17,47.46-18.25,89.46-47.59,125.66C441.23,424.72,422.35,417.22,403.72,409.82z"/>
		<path class="st1" d="M191.79,409.48c-19.51,7.77-38.28,15.25-57.59,22.95c-29.25-36.02-45.35-77.97-47.63-125.66
			c30,0,59.76,0,90.24,0C177.46,341.69,182.22,376.3,191.79,409.48z"/>
		<path class="st1" d="M305.1,201.99c27.9-3.34,55.24-6.62,83.08-9.96c9.14,31.55,14.04,64.75,14.47,98.98c-32.58,0-64.94,0-97.55,0
			C305.1,260.93,305.1,231.03,305.1,201.99z"/>
		<path class="st1" d="M192.13,291.02c0.33-34.08,5.32-67.28,14.42-98.95c27.77,3.31,55.21,6.58,82.99,9.89c0,28.93,0,58.84,0,89.06
			C257.12,291.02,224.76,291.02,192.13,291.02z"/>
		<path class="st1" d="M305.03,395.62c0-29,0-58.79,0-88.9c32.44,0,64.71,0,97.58,0c-0.27,33.81-5.3,66.97-14.39,98.84
			C360.52,402.25,333.08,398.97,305.03,395.62z"/>
		<path class="st1" d="M289.47,397.11c-27.9,0.38-55.22,3.73-82.49,9.83c-9.54-32.91-14.46-66.11-14.86-100.28
			c32.5,0,64.77,0,97.36,0C289.47,336.59,289.47,366.5,289.47,397.11z"/>
		<path class="st1" d="M383.04,176.18c-25.72,5.93-51.43,8.7-77.81,9.29c0-32.22,0-64.29,0-97.31c4.36,1.29,8.71,2.23,12.8,3.83
			c14.06,5.53,24.94,15.25,34.28,26.84C366.08,135.92,375.48,155.34,383.04,176.18z"/>
		<path class="st1" d="M305.08,509.07c0-32.32,0-64.3,0-96.25c10.88-2.02,61.85,3.75,78.02,8.82
			c-10.81,27.93-23.52,54.57-47.65,73.84C326.62,502.53,316.77,507.51,305.08,509.07z"/>
		<path class="st1" d="M211.65,176.17c2-5.1,3.71-9.9,5.76-14.55c9.07-20.56,19.92-39.98,36.84-55.3
			c9.96-9.03,21.25-15.59,35.16-17.85c0,32.28,0,64.34,0,96.94C263.41,184.99,237.64,182.09,211.65,176.17z"/>
		<path class="st1" d="M211.58,421.41c25.84-5.72,51.52-8.91,77.89-9.17c0,32.37,0,64.46,0,96.83
			c-13.69-2.01-24.93-8.58-34.92-17.53c-16.66-14.92-27.42-33.88-36.45-53.96C215.77,432.39,213.83,427.02,211.58,421.41z"/>
		<path class="st1" d="M243.68,95.14c-21.71,22.12-37.37,47.84-47.29,78.48c-17.32-6.66-34.21-13.16-52.11-20.05
			C172.86,124.22,205.51,105.11,243.68,95.14z"/>
		<path class="st1" d="M349.86,94.41c39.36,10.6,72.09,29.7,100.58,59.1c-17.69,6.82-34.57,13.33-52.04,20.07
			C388.52,142.92,372.76,117.18,349.86,94.41z"/>
		<path class="st1" d="M351.66,502.12c21.25-22.11,36.83-47.51,46.32-77.07c18.03,4.57,34.94,11.17,51.68,19.82
			C422.07,473.21,389.66,492.25,351.66,502.12z"/>
		<path class="st1" d="M196.71,425.07c9.63,29.68,25.08,55.14,46.96,76.86c-19.59,1.23-82.98-35.81-98.07-57.29
			C161.81,436.24,178.64,429.75,196.71,425.07z"/>
	</g>
</g>
</svg>
