<?xml version="1.0" encoding="utf-8"?>
<!-- Generator: Adobe Illustrator 27.8.1, SVG Export Plug-In . SVG Version: 6.00 Build 0)  -->
<svg version="1.1" id="Laag_1" xmlns="http://www.w3.org/2000/svg" xmlns:xlink="http://www.w3.org/1999/xlink" x="0px" y="0px"
	 viewBox="0 0 595.28 595.28" style="enable-background:new 0 0 595.28 595.28;" xml:space="preserve">
<style type="text/css">
	.st0{fill:#FFFFFF;}
	.st1{fill:none;}
	.st2{fill:#00704A;stroke:#006633;stroke-miterlimit:10;}
</style>
<g>
	<g>
		<path class="st0" d="M595.28,538.83c-198.43,0-396.85,0-595.28,0c0-179.1,0-358.2,0-537.29c198.43,0,396.85,0,595.28,0
			C595.28,180.63,595.28,359.73,595.28,538.83z M372.3,113.52c-17.08-19.13-33.89-39.41-52.29-58.12
			c-15.63-15.89-35.83-16.06-51.66-0.67C197.72,123.44,127.22,192.3,57.7,262.12c-6.69,6.72-11,22.24-7.9,30.48
			c3.16,8.4,16.62,17.66,25.92,18.03c18.25,0.74,20.92,8.51,20.73,23.92c-0.65,53.46-0.41,106.94-0.22,160.41
			c0.1,28.32,9.04,37.24,36.76,37.41c27.06,0.16,54.11,0.15,81.17,0c25.56-0.14,32.16-6.48,32.4-32
			c0.31-34.14,0.55-68.29-0.09-102.42c-0.25-13.35,4.24-18.52,17.84-17.94c20.58,0.88,41.26,1.1,61.82,0.1
			c15.69-0.77,19.94,5.78,19.62,20.45c-0.72,32.84-0.25,65.7,0.03,98.56c0.23,27.49,5.93,33.16,32.82,33.27
			c25.77,0.11,51.54,0.04,77.31,0c31.23-0.05,40.31-8.92,40.39-40.08c0.13-52.83,0.6-105.66-0.31-158.47
			c-0.28-16.15,3.25-22.69,20.99-23.17c8.72-0.24,21.29-9.17,24.56-17.23c3.22-7.96-0.81-21.16-5.85-29.54
			c-5.76-9.59-15.63-17.04-24.63-24.27c-11.67-9.37-15.46-20.76-14.99-35.48c0.85-27.03,1.58-54.23-0.75-81.09
			c-0.83-9.57-10.07-25.75-16.51-26.28C444.72,93.98,408.66,82.63,372.3,113.52z"/>
		<path class="st1" d="M372.3,113.52c36.35-30.89,72.42-19.54,106.5-16.76c6.43,0.53,15.68,16.71,16.51,26.28
			c2.33,26.86,1.6,54.07,0.75,81.09c-0.46,14.72,3.32,26.11,14.99,35.48c9,7.23,18.87,14.68,24.63,24.27
			c5.04,8.39,9.07,21.58,5.85,29.54c-3.26,8.06-15.84,17-24.56,17.23c-17.75,0.48-21.27,7.02-20.99,23.17
			c0.9,52.81,0.44,105.65,0.31,158.47c-0.08,31.16-9.16,40.03-40.39,40.08c-25.77,0.05-51.54,0.11-77.31,0
			c-26.88-0.11-32.58-5.78-32.82-33.27c-0.28-32.85-0.75-65.72-0.03-98.56c0.32-14.67-3.92-21.22-19.62-20.45
			c-20.56,1.01-41.24,0.78-61.82-0.1c-13.6-0.58-18.09,4.59-17.84,17.94c0.64,34.13,0.41,68.28,0.09,102.42
			c-0.23,25.52-6.84,31.86-32.4,32c-27.06,0.15-54.11,0.15-81.17,0c-27.73-0.16-36.66-9.08-36.76-37.41
			c-0.2-53.47-0.44-106.94,0.22-160.41c0.19-15.41-2.48-23.18-20.73-23.92c-9.3-0.38-22.76-9.63-25.92-18.03
			c-3.09-8.24,1.21-23.77,7.9-30.48c69.52-69.82,140.02-138.69,210.65-207.39c15.82-15.39,36.03-15.22,51.66,0.67
			C338.42,74.11,355.22,94.39,372.3,113.52z M65.68,288.01c12.52,0.69,19.93,1.45,27.34,1.44c25.74-0.04,25.65-0.14,25.63,25.04
			c-0.06,58.61,0.3,117.23-0.27,175.84c-0.14,14.98,4.89,20.77,20.18,20.05c21.85-1.03,43.84-1.26,65.67-0.03
			c16.86,0.94,20.68-6.1,20.31-21.51c-0.91-37.34,0.19-74.72-0.58-112.06c-0.29-14.04,3.82-19.55,18.54-19.2
			c35.41,0.85,70.86,0.88,106.26,0.03c15.6-0.37,19.9,5.77,19.59,20.51c-0.78,36.7,0.49,73.44-0.55,110.13
			c-0.46,16.32,3.38,23.53,21.26,22.24c21.15-1.54,42.54-1.33,63.72-0.15c17.56,0.98,21.7-6.21,21.45-22.69
			c-0.9-59.89-0.04-119.8-0.69-179.7c-0.15-14.29,4.42-19.88,18.81-18.86c9.42,0.67,19-0.87,31.81-1.61
			c-4.62-7.09-5.71-10.7-8.1-12.16c-42.68-26.02-47.2-66.48-42.35-110.61c0.21-1.91,0.04-3.86,0.02-5.79
			c-0.44-50.57,5.09-42.1-43.33-42.88c-27.44-0.44-27.37-0.23-28.44,26.16c-0.22,5.48-1.21,10.93-2.18,19.34
			c-6.46-5.45-10.87-8.77-14.82-12.57c-24.15-23.19-48.19-46.5-72.29-69.74c-16.79-16.19-20.13-16.29-36.29-0.54
			c-65.03,63.38-130.03,126.79-194.93,190.3C76.77,273.58,73,279.11,65.68,288.01z"/>
		<path class="st2" d="M65.68,288.01c7.33-8.9,11.09-14.44,15.78-19.03c64.9-63.51,129.91-126.92,194.93-190.3
			c16.15-15.74,19.49-15.64,36.29,0.54c24.1,23.24,48.14,46.55,72.29,69.74c3.96,3.8,8.37,7.12,14.82,12.57
			c0.98-8.41,1.96-13.86,2.18-19.34c1.07-26.4,1-26.61,28.44-26.16c48.41,0.78,42.88-7.69,43.33,42.88
			c0.02,1.93,0.19,3.88-0.02,5.79c-4.85,44.13-0.33,84.59,42.35,110.61c2.39,1.46,3.48,5.06,8.1,12.16
			c-12.81,0.74-22.39,2.28-31.81,1.61c-14.39-1.02-18.97,4.57-18.81,18.86c0.65,59.89-0.21,119.81,0.69,179.7
			c0.25,16.49-3.9,23.67-21.45,22.69c-21.19-1.18-42.58-1.39-63.72,0.15c-17.88,1.3-21.72-5.91-21.26-22.24
			c1.04-36.68-0.23-73.43,0.55-110.13c0.31-14.74-3.99-20.88-19.59-20.51c-35.41,0.84-70.86,0.82-106.26-0.03
			c-14.72-0.35-18.83,5.15-18.54,19.2c0.77,37.34-0.33,74.73,0.58,112.06c0.38,15.41-3.44,22.46-20.31,21.51
			c-21.83-1.22-43.82-1-65.67,0.03c-15.29,0.72-20.32-5.06-20.18-20.05c0.57-58.61,0.21-117.22,0.27-175.84
			c0.03-25.19,0.11-25.08-25.63-25.04C85.61,289.46,78.2,288.7,65.68,288.01z"/>
	</g>
</g>
<rect y="538.83" class="st0" width="595.28" height="56.45"/>
</svg>
